<svg id="Layer_1" xmlns="http://www.w3.org/2000/svg" viewBox="0 0 27.5 36.9"><style type="text/css"> .st0{fill:#000000;} </style><path class="st0" d="M13.8 17c4.3 0 7.7-3.5 7.7-7.7S18 1.6 13.8 1.6 6 5.1 6 9.3 9.5 17 13.8 17zM13.8 3.6c3.2 0 5.7 2.6 5.7 5.7 0 3.2-2.6 5.7-5.7 5.7 -3.2 0-5.7-2.6-5.7-5.7C8 6.1 10.6 3.6 13.8 3.6z"/><path class="st0" d="M19.6 18.5H8.1c-3.6 0-6.6 2.9-6.6 6.6v10.3h24.7V25C26.2 21.4 23.3 18.5 19.6 18.5zM24.2 33.4H3.5V25c0-2.5 2.1-4.6 4.6-4.6h11.5c2.5 0 4.6 2.1 4.6 4.6V33.4z"/></svg>